<?xml version="1.0" encoding="utf-8"?>
<svg viewBox="0 0 500 500" xmlns="http://www.w3.org/2000/svg">
  <g id="Layer_x0020_1" transform="matrix(1, 0, 0, 1, -1335.823608, -1083.883423)">
    <g id="_1421344023328">
      <path fill-rule="nonzero" d="M 1802.036 1379.438 C 1773.127 1495.395 1655.68 1565.965 1539.708 1537.049 C 1423.785 1508.141 1353.215 1390.687 1382.136 1274.737 C 1411.033 1158.767 1528.48 1088.192 1644.416 1117.101 C 1760.379 1146.01 1830.944 1263.477 1802.033 1379.44 L 1802.035 1379.438 L 1802.036 1379.438 Z" style="fill: rgb(13, 28, 84); transform-box: fill-box; transform-origin: 50% 50%;"/>
      <path fill-rule="nonzero" d="M 1687.53 1296.237 C 1691.837 1267.431 1669.908 1251.948 1639.919 1241.618 L 1649.647 1202.6 L 1625.896 1196.681 L 1616.425 1234.673 C 1610.181 1233.116 1603.769 1231.649 1597.396 1230.193 L 1606.934 1191.951 L 1583.196 1186.032 L 1573.463 1225.039 C 1568.295 1223.862 1563.22 1222.699 1558.296 1221.474 L 1558.324 1221.351 L 1525.569 1213.172 L 1519.251 1238.54 C 1519.251 1238.54 1536.873 1242.581 1536.501 1242.829 C 1546.12 1245.23 1547.858 1251.597 1547.571 1256.644 L 1536.489 1301.095 C 1537.151 1301.264 1538.01 1301.507 1538.958 1301.887 C 1538.166 1301.69 1537.322 1301.477 1536.448 1301.267 L 1520.915 1363.537 C 1519.739 1366.46 1516.755 1370.846 1510.032 1369.18 C 1510.27 1369.525 1492.768 1364.872 1492.768 1364.872 L 1480.976 1392.06 L 1511.885 1399.766 C 1517.635 1401.209 1523.271 1402.716 1528.819 1404.135 L 1518.991 1443.602 L 1542.715 1449.521 L 1552.449 1410.473 C 1558.93 1412.233 1565.22 1413.856 1571.377 1415.385 L 1561.677 1454.248 L 1585.43 1460.167 L 1595.258 1420.775 C 1635.76 1428.44 1666.215 1425.35 1679.033 1388.715 C 1689.362 1359.22 1678.519 1342.208 1657.211 1331.113 C 1672.731 1327.534 1684.421 1317.326 1687.538 1296.24 L 1687.53 1296.235 L 1687.53 1296.237 Z M 1633.261 1372.334 C 1625.921 1401.83 1576.26 1385.886 1560.16 1381.888 L 1573.203 1329.602 C 1589.303 1333.62 1640.933 1341.574 1633.262 1372.334 L 1633.261 1372.334 Z M 1640.607 1295.81 C 1633.91 1322.638 1592.578 1309.009 1579.17 1305.666 L 1590.995 1258.246 C 1604.402 1261.588 1647.582 1267.825 1640.609 1295.81 L 1640.607 1295.81 Z" style="fill: rgb(123, 199, 227); transform-box: fill-box; transform-origin: 50% 50%;"/>
    </g>
  </g>
</svg>