<?xml version="1.0" encoding="utf-8"?>
<svg viewBox="0 0 500 500" xmlns="http://www.w3.org/2000/svg">
  <path fill-rule="nonzero" d="M 470.005 298.701 C 440.341 417.687 319.827 490.102 200.825 460.429 C 81.873 430.766 9.459 310.243 39.136 191.265 C 68.788 72.265 189.303 -0.155 308.267 29.51 C 427.261 59.173 499.669 179.71 470.002 298.702 L 470.005 298.701 Z" style="fill: rgb(67, 14, 56); transform-box: fill-box; transform-origin: 50% 50%;"/>
  <path fill-rule="nonzero" d="M 352.508 213.326 C 356.928 183.768 334.426 167.881 303.654 157.281 L 313.637 117.243 L 289.263 111.17 L 279.546 150.154 C 273.139 148.556 266.558 147.05 260.018 145.556 L 269.807 106.316 L 245.449 100.243 L 235.462 140.268 C 230.16 139.061 224.95 137.868 219.898 136.611 L 219.926 136.484 L 186.316 128.092 L 179.833 154.123 C 179.833 154.123 197.915 158.269 197.534 158.523 C 207.404 160.987 209.189 167.52 208.892 172.698 L 197.521 218.312 C 198.201 218.484 199.083 218.734 200.055 219.125 C 199.242 218.923 198.377 218.702 197.478 218.487 L 181.541 282.386 C 180.334 285.384 177.273 289.884 170.373 288.176 C 170.616 288.529 152.659 283.754 152.659 283.754 L 140.557 311.653 L 172.275 319.56 C 178.175 321.039 183.957 322.588 189.651 324.044 L 179.566 364.541 L 203.911 370.613 L 213.899 330.546 C 220.549 332.352 227.003 334.018 233.321 335.588 L 223.368 375.465 L 247.742 381.539 L 257.826 341.118 C 299.386 348.983 330.636 345.812 343.79 308.221 C 354.39 277.955 343.262 260.498 321.397 249.114 C 337.322 245.441 349.319 234.967 352.517 213.33 L 352.509 213.324 L 352.508 213.326 Z M 296.822 291.413 C 289.29 321.678 238.332 305.318 221.811 301.214 L 235.194 247.562 C 251.715 251.687 304.694 259.848 296.823 291.413 L 296.822 291.413 Z M 304.359 212.888 C 297.488 240.417 255.075 226.431 241.317 223.002 L 253.452 174.341 C 267.21 177.771 311.518 184.172 304.361 212.888 L 304.359 212.888 Z" style="fill: rgb(135, 88, 126); transform-box: fill-box; transform-origin: 50% 50%;"/>
</svg>