<!DOCTYPE svg PUBLIC "-//W3C//DTD SVG 1.1//EN" "http://www.w3.org/Graphics/SVG/1.1/DTD/svg11.dtd">
<!-- Uploaded to: SVG Repo, www.svgrepo.com, Transformed by: SVG Repo Mixer Tools -->
<svg version="1.1" id="_x32_" xmlns="http://www.w3.org/2000/svg" xmlns:xlink="http://www.w3.org/1999/xlink" width="800px" height="800px" viewBox="0 0 512 512" xml:space="preserve" fill="#ffffff" stroke="#ffffff">
<g id="SVGRepo_bgCarrier" stroke-width="0"/>
<g id="SVGRepo_tracerCarrier" stroke-linecap="round" stroke-linejoin="round"/>
<g id="SVGRepo_iconCarrier"> <style type="text/css">  .st0{fill:#ffffff;}  </style> <g> <polygon class="st0" points="195.047,75.844 178.797,75.844 178.797,109.047 138.156,109.047 138.156,320.344 178.797,320.344 178.797,360.297 195.047,360.297 195.047,320.344 235.688,320.344 235.688,109.047 195.047,109.047 "/> <polygon class="st0" points="512,49.438 471.375,49.438 471.375,16.25 455.109,16.25 455.109,49.438 414.469,49.438 414.469,293.25 455.109,293.25 455.109,333.203 471.375,333.203 471.375,293.25 512,293.25 "/> <path class="st0" d="M56.875,203.172h-16.25v36.578H0v219.422h40.625v36.578h16.25v-36.578h40.656V239.75H56.875V203.172z M81.281,256v186.922H16.25V256H81.281z"/> <path class="st0" d="M333.203,151.703h-16.25v33.188h-40.641v227.563h40.641v39.953h16.25v-39.953h40.641V184.891h-40.641V151.703z M357.594,201.156v195.047h-65.031V201.156H357.594z"/> </g> </g>
</svg>